<svg id="Lager_1" data-name="Lager 1" xmlns="http://www.w3.org/2000/svg" viewBox="0 0 699 812.52"><defs><style>.cls-1{fill:#fff;}.cls-2,.cls-3{fill:#333;}.cls-3{font-size:550px;font-family:Georgia-Bold, Georgia;font-weight:700;}</style></defs><title>info</title><path class="cls-1" d="M400.5,718.5A318,318,0,0,1,175.64,175.64,318,318,0,0,1,625.36,625.36,315.92,315.92,0,0,1,400.5,718.5Z" transform="translate(-51 -51)"/><path class="cls-2" d="M400.5,114A285.41,285.41,0,1,1,289,136.49,284.65,284.65,0,0,1,400.5,114m0-63C207.48,51,51,207.48,51,400.5S207.48,750,400.5,750,750,593.52,750,400.5,593.52,51,400.5,51Z" transform="translate(-51 -51)"/><text class="cls-3" transform="translate(251.49 545.8)">i</text></svg>